<svg fill="none" height="256" viewBox="0 0 844 256" width="844" xmlns="http://www.w3.org/2000/svg"><path d="m651.4 116.6 20.5 4s27.5 26.5-28 46.5 174.5 25 174.5 25l-452 2.5c57.6-3.8 91-7.5 178.5-28 59.6-14 104.8-29.8 106.5-50z" fill="#fafbfc"/><path d="m101.2 232.1c31.48 0 57-2.507 57-5.6s-25.52-5.6-57-5.6-57 2.507-57 5.6 25.52 5.6 57 5.6zm140 0c13.918 0 25.2-2.507 25.2-5.6s-11.282-5.6-25.2-5.6-25.2 2.507-25.2 5.6 11.282 5.6 25.2 5.6zm152.9 2.3c36.064 0 65.3-4.701 65.3-10.5s-29.236-10.5-65.3-10.5-65.3 4.701-65.3 10.5 29.236 10.5 65.3 10.5z" fill="#cacfd6"/><path d="m793.8 191-129.4-2.8-13.5-40c3.5-1.3 7.9-3.2 11.6-5.2 7.4-4.1 8.2-14.8 5.1-21.8-2.2-.9-8-1.1-8-1.1s1.1 5 .5 9.6c-.4 3.3-8.1 7.2-12.4 9.1l-15.7-46.6c2.4-1.4 26-28.5 26-28.5h10.6l45.4 51.2 15-7.7z" fill="#f0f3f5"/><path d="m667.7 121.2s7 18.3-7.8 23.7-61.7 21.2-54 28.2c17.4 16 83.2 17.8 83.2 17.8s-4.5-27.7-8-39.9z" fill="#e1e4e8"/><path d="m62.7 176.1 18.2-27 1.7 13.4 13.3-22.6 3.1 8.7 6.3-15.2 7 21.1 11-31.8 8.2 26.3 11.5-15.6s-12.4 4.3-12.4 3.2 16.8-22.1 16.8-22.1-15.4 5.5-15.4 4.3c0-1.1 13.1-12.6 17.5-19.8 4.5-7.2 12.5-32.2 12.5-32.2s12.8 30.8 19.6 34.2c2.2-4.9 9.2-19 9.2-19l-13.9 5.8s21-41.8 23.5-51.3 1.9-6.2 6.6 2c3.2 7 7 29.9 18.6 43 11 9.8-7.9 2.8-7.9 2.8l17.1 31 15-27.6 8.9 21.4 13.3-27.8-15 10s13.4-18.7 16.3-33.4c2.9-14.8 6.4-38.2 6.4-38.2l18.9 34.2s18-47.4 18.7-53.8c2.1 22.6 30.7 76.7 30.7 76.7s11-22.5 12-30.8c3.5 8.3 48.4 145.2 48.4 145.2s-126.8 7.8-176.3 8-144.3.8-153-4-16.4-19.1-16.4-19.1z" fill="#eef1f3"/><path d="m407.4 190.5s72-6.5 81-12.8" stroke="#e1e4e8" stroke-miterlimit="10" stroke-width="1.307"/><path d="m256.301 207.6s4.9-1.4 5.6 1.1c.8 2.4-5.6 12.2-5.6 12.2s7.3-.6 7.6.9c-5.3.8-11.6.7-12 1s4.4-15.2 4.4-15.2z" fill="#f66a0a"/><path d="m271.7 198.6c-.5-1-8.5 0-8.5 0v-4.8s6.1-1.8 6.4-3.2c.9-3.5-6.3-.9-7.5-.6-5.1 1.1-9.9 3.6-13.8 7.2-5.4 5-8.7 12.1-9.2 19.4-.1 1.5 0 3.1.4 4.6-1.6 1.3-4.1 2.8-6 1.6-2.8-2 5.9-16.6 5.5-23.5-.3-5.8-5.1-19.3-17.2-19.4-9.7-.1-15.2 3.9-18.9 12.4s-6.1 12.9-10.1 12.5-5.7.3-8.9-5.8c.3 4.1 3.5 12.6 12 12.4s12.2-4.4 16-7.9c3.7-3.6 10.3-5 10.6-.2.3 4.7-3.7 16.3-3.1 20.1s2.3 6 9.2 5.8c5.9-.2 10-4.3 11.7-6.1.7 1.1 1.8 2.1 3.1 2.4.2.1.4.1.6.2.5.3-1 2.3-1.2 2.8s9.2.9 13.6.5c.5 0 .9-.1 1.3-.4.5-.5.2-1.5-.3-1.9-.6-.4-1.3-.5-2.1-.6-2.4-.2-4.9-.4-7.3-.6 3.5-2.1 6.7-4.6 9.6-7.5 1.4-1.4 2.8-3.4 2.3-5.3-.4-1.6-1.9-2.6-3.3-3.4-.2-2.6-.5-5.2-.1-7.8.3-2.1.8-3.6 2.1-4.9 0 0 .7 6.4 2.5 7.2s8.1-2.6 8.1-2.6 1 2.4 1.3 2.3c.1-.2 1.7-3.8 1.2-4.9z" fill="#ff9c57"/><path d="m267.401 187.2c-.9-.5-1.4-3.2-.7-3.5s2.5.7 2.5 2.2c.5-.2 1.6-.5 1.8-.8-.4-.4-.7-.3-1-1.4-.4-1.5.8-1.9 1.3-1.4.6.4 1.3 1.8 1 2.7 1.7-.9 3.8-.4 5.4.6s2.6 2.7 3 4.5c.1.4.2.9.5 1.2.7.6 1.8-.2 2.6.1.7.2-.2 3.1-.8 3.5-1.7 1.1-3.7 1.9-5.8 2.2-1.9.3-4 .2-5.6-.9-.8-.5-1.4-1.3-1.9-2-2-3.1-1.5-3.7-2.3-7z" fill="#ff9c57"/><path d="m256.901 199.3c-1.4 1.7-2.5 3.8-3.6 5.7-1.6 2.7-3.2 5.5-4.2 8.5 2.5-1.5 4.9-3 7.6-4.1-.1 0-.2-.1-.2-.1-.2-2.6-.5-5.2-.1-7.8.1-.9.3-1.6.5-2.2z" fill="#f66a0a"/><path d="m224.3 225.7c-.4-3.7 9-11.9 2.8-13.7-.4-.1-.6-.6-.4-.9 1.8-2.5 5.2-4.5 6-7.4s-1.2-5.3-3.9-6c-1-.3-2.4-.5-3.2-1.3-.9-1-.8-2.6-2-3.4-1.9-1.2-4.9.1-6.6 1-2.8 1.5-4.9 3.9-7.1 6.1-3.7 3.7-8 8.5-13.6 8.9-6.2.5-9.5-4.5-12.3-9.2.6 4.3 3.9 11.8 11.9 11.6 8.5-.2 12.2-4.4 16-7.9 3.7-3.6 10.3-5 10.6-.2.3 4.7-3.7 16.3-3.1 20.1s2.3 6 9.2 5.8c.5 0 1.1-.1 1.6-.2-2.9.3-5.6.1-5.9-3.3z" fill="#ff7000"/><path d="m277.101 187.8c1 .7 1.7 1.6 2.4 2.6 1.2 2 2.7 2.6 4.6 2.2.1-.7.1-1.2-.2-1.3-.9-.3-1.9.5-2.6-.1-.3-.3-.4-.7-.5-1.2-.4-1.8-1.5-3.5-3-4.5-1-.7-2.3-1.1-3.6-1-.6.2-1.2.3-1.7.4-.4.1-.8.2-1.2.2-.4.2-.8.3-1.2.5.1.1.2.2.2.3 2.2 0 4.7.5 6.8 1.9zm-45.101.6c4.8 6.2 5.3 14.5 4.3 22.2 1.5-4.1 3-8.4 2.8-11.3-.3-5.8-5.1-19.3-17.2-19.4h-.7c4.3 1.8 8.4 5.4 10.8 8.5z" fill="#ffd1ac" opacity=".8"/><path d="m255.3 226-3.6-.3c.8.4 1.4 1 1.8 1.8.3.6.3 1.1.2 1.5 1 0 2-.1 2.7-.1.5 0 .9-.1 1.3-.4.5-.5.2-1.5-.3-1.9-.6-.5-1.4-.6-2.1-.6z" fill="#f66a0a"/><path d="m283.8 192.4a.9.9 0 1 0 0-1.8.9.9 0 0 0 0 1.8z" fill="#2f363d"/><path d="m256.501 209.2c-3.1 0-6.4 3.6-7.7 4.7 7.1-4.6 9.6-2.5 10 1 .1.6 0 1.1-.1 1.7.9-1.2 1.5-2.6 1.1-4-.4-1.6-1.7-3.4-3.3-3.4zm6.7-10.6v-4.4c-.7.1-1.2.5-1.6 1.5-.3.7-.4 3.2 0 3.8.8 1 4.5-.2 5.8-.4 1.5-.2 3-.3 4.5-.1 0-.2 0-.3-.1-.4-.7-1-8.6 0-8.6 0z" fill="#ffd1ac" opacity=".8"/><path d="m132.2 208.6s1.1 8.5 3.3 10.8c2.2 2.4 11.3 8.7 11.8 7.4-4.4-5.5-9.2-19.3-9.2-19.3zm-29.1.6c-.1 0-.2.1-.2.2-.1.2 0 .4.1.5 1 1.8 1.8 3.7 2.4 5.7.4 1.4 1.1 3.4 2.5 2.7 2.3-1.2.4-4.2 0-6.8.3 1.6 5.3-.3 7-2.6 2.1-3-2.9-3.5-4.7-3-2.5.6-4.9 2.2-7.1 3.3z" fill="#ff7000"/><path d="m122.5 190.8c-3-.3-6.2-.2-9 1-2.7 1.2-4.8 3.3-6.8 5.5-.6.7-1.2 1.4-2 1.8s-1.6.6-2.5.6c-4.1.1-7.9-2.1-10.7-5.1s-4.7-6.7-6.8-10.2c-3.3-5.6-7.4-11.2-13.1-14.3-8-4.3-18.4-3-25.7 2.5-7.4 5.4-11.7 14.4-12.3 23.4-.1 2 .3 4.6 2.2 5.1 1-1.9 2-3.9 3-5.8 1.5-2.9 3.1-5.8 5.6-7.8s6.4-2.7 9-.9c2.1 1.5 2.9 4.1 3.2 6.6s.1 5.1.7 7.6c1.4 6 7.3 10.2 13.3 11.4 4.4.9 9 .4 13.1-1.2 6.9-2.7 12.9-8.8 20.3-8.3 1 2.6 3.5 4.4 6.2 5.1s5.5.6 8.3.5c-1.2 1.5-2.4 2.9-3.6 4.4 1.9 3.8 4.5 7.3 7.6 10.3 1.5-3.8.3-7.7-2.1-11 .4-.9 1.8-2.4 2.8-2.7 2.7 1.5 9.9 1.1 13 .6-.1 2.2.3 7.3 1.7 9.5s6 6.8 8.6 8.2c1.6.9 6.7 2.1 7.4.6-6.2-2.6-12.3-9-12.3-15.7 0-3.3 2.8-5.4 2.7-8.2-.1-2.4-4-5.2-5.7-6.6-4.5-3.8-10.2-6.2-16.1-6.9z" fill="#ff9c57"/><path d="m88.2 201.9c-2.4 0-4.9.5-6.8-1.4-.7-.7-1-1.7-1.5-2.5-1.4-2.2-3.2-2.5-5.7-2.3-3.1.2-4.2-1-5.4-3.8-3.5-7.9-12.4-14-20.9-9.4-6.6 3.5-10.6 11.2-12.3 18.2 0 .1-.1.1-.1.2.1.1.3.1.4.2 1-1.9 2-3.9 3-5.8 1.5-2.9 3.1-5.8 5.6-7.8s6.4-2.7 9-.9c2.1 1.5 2.9 4.1 3.2 6.6s.1 5.1.7 7.6c1.4 6 7.3 10.2 13.3 11.4 4.4.9 9 .4 13.1-1.2 4.9-1.9 9.4-5.5 14.2-7.3-3-1.4-6.3-1.8-9.8-1.8z" fill="#ff7000"/><path d="m121.1 199.3c.1 0 5.9 3.9 5.8 5.7s-5.2 4.6-5.2 4.6 2.5-3.2 2-5.1-2.6-5.2-2.6-5.2z" fill="#ffd1ac" opacity=".6"/><path d="m142.6 201c-.6 2-1.7 3.8-2.2 5.8-.7 2.9 0 5.3 1.4 7.4-.1-.6-.2-1.2-.2-1.8 0-3.3 2.8-5.4 2.7-8.2.1-1.1-.7-2.2-1.7-3.2z" fill="#fb8532"/><path d="m146.6 197c1.5-.6 2.7.9 1.7 4.6h1.9c-.3-1-.5-2.1-.3-3.1s.8-1.5 1.8-1.5c1 .1 1.4.9 1.4 2 0 1-.2 2-.7 2.9 2.3 1.6 3.6 4.5 3.2 7.3-.1 1-.4 2-.5 2.9 0 1 .4 2.1 1.3 2.5.5.2 1.1.2 1.6.4s1.1.6 1 1.2c-.1.5-.5.8-.9 1-3.1 1.5-7 1.6-10.1 0-2.8-1.3-5-4-5.4-7-.3-2 .4-4 1.6-5.6.5-.5 1.9-1.2 2.1-1.9-.6-1-1.7-4.9.3-5.7z" fill="#ff9c57"/><path d="m158.2 216.7a.9.9 0 1 0 0-1.8.9.9 0 0 0 0 1.8z" fill="#2f363d"/><path d="m76.2 180.6c3.5 3.9 6.1 8.4 9.4 12.5 3.5 4.2 7.7 6.9 12.9 8.2.4-.1.7-.1 1.1-.2-3.6-.3-6.9-2.4-9.4-5.1-2.8-3-4.7-6.7-6.8-10.2-3.3-5.6-7.4-11.2-13.1-14.3-4-2.1-8.5-2.9-13-2.4 7.3 1.4 14.2 6.1 18.9 11.5zm56.9 16.3c3.2 1.8 5.7 4.5 7.9 7.3.2-.8.4-1.5.7-2.3-1.7-1.9-3.5-3.6-5.7-5-4.8-3.2-10.4-4.1-15.9-5 .6.3 1.3.6 1.9.9 3.6 1.4 7.6 2.1 11.1 4.1z" fill="#ffd1ac" opacity=".6"/><path d="m446.3 174.2c-.2-1.1 51.6-60.7 56-64.8s44.3-51 47.1-52.6c1.8-3.9-4.1-7.2-6.7-5.4-2.4 4.8-44.3 54.3-48.1 58.4s-34.2 36.9-47.5 47.4c-2.9 8-5.5 9.3-7.6 11.7-.4 1.2.1 2.9 2.5 4.5 2.5 1.5 4.3.8 4.3.8z" fill="#f9c513"/><path d="m535.6 68.1c-3.8 3.7-18 20.5-21.7 24.9-8 9.5-41 46.8-49.4 56.2-3.9 4.4-18.9 19.8-22.8 23.7.2.1.3.2.5.4 2.4 1.6 4.2.9 4.2.9-.2-1.1 51.6-60.7 56-64.8 4.5-4.1 44.3-51 47.1-52.6.5-1.2.4-2.3-.2-3.2-4.2 5.2-9 9.9-13.7 14.5z" fill="#ffdf5d"/><path d="m440.7 167.7c-.4.4-.7.7-1 1.1-.4 1.2.1 2.9 2.5 4.5s4.2.9 4.2.9c0-.1.2-.4.7-1-1.6-2.5-3.7-4.4-6.4-5.5z" fill="#dbab09"/><g stroke="#0366d6" stroke-miterlimit="10" stroke-width="1.633"><path d="m393.2 59.7c-2.4-8.4-9.4-11.7-11.8-12.2-.5-.1-.9.4-.8.9l3.1 11.3s-6.4 8.9-6.4 18.2 1 12.9 0 15.8-2.2 9.3 2.2 16.3c8.2 13.1 20.9 16.5 20.9 16.5"/><path d="m380.9 47.6s5.7-6.4 19.8-1.4c0 0 14.1-7.5 31.1-1.1s21.6 16.8 21.6 16.8"/><path d="m437.6 69s10.6-9.1 19.7-7.1c8.6 6.6 3 23.8 1 26.3"/><path d="m444.9 68.3s7.5-4.5 9.1-2.8c1.9 2 1.2 13 .5 17.1m-77.3-4.6s.8-11.9 7.1-9.9 9.8 15.4 16.7 17.2c6.8 1.8 31.8-6 40.6 1.5 8.8 7.6 4.8 16.4 3.3 19.4s-6.3 10.7-6.3 10.7 6.3 5.9-6.8 10.2"/><path d="m460.6 82.7s3 17.8-4.9 28.5c-8.5 11.6-26.9 19.7-44 17.9"/><path d="m412.2 130.9s-1.2-5.4-6.1-5.8c-4.9-.3-16.7 7.7-22.8 17.1s-5.1 13.8 1.8 18.9c5.2 3.8 18.3 6.7 30.1 5.5l14.3-1.4s1.2.3 1.5 1.8c0 .9-2.2 7.6 1.5 8.1 3.7.6 4.2-2.2 4.2-4.9 3.1-1.8 10.2-5.9 10.5-17.4.3-11.6-8.3-18.6-18-17.2-9.7 1.5-25.5 7.5-34.3 5.5m13-9.9s-5 5.8-5.1 10.1m17.8-3.9-5.4-8.1m-2 3.5 1.3 6.2m-13.925-23.338c.497-.861-.767-2.522-2.824-3.709-2.056-1.188-4.126-1.452-4.623-.591-.498.861.767 2.521 2.823 3.708 2.057 1.188 4.127 1.453 4.624.592z"/><path d="m399.1 126.6s-35.4 10-51.5 18-51.6 28-50.2 33.6c1.5 5.6 31.3-5.3 40.9-9.5 10.8-4.8 42.1-21.3 42.1-21.3m13 17.3s-12.2 15.1-19.3 19.4c-6.9 4.2-26 14.3-27.5 17-2.2 4-4.8 18.2 9.3 25.3 6.1 3.1 20.4 4.2 26.4.7s5.7-4.8 5.1-5.4c-1.5-1.3-17.4 7.8-24.3 6.8"/><path d="m358.7 206.6c.5-.5 15.3-2.5 21.5 3 5 4.5 4.6 12.6 3.8 12.8m-3.8-12.8s11.9-6.4 20.1-18.6 12-24.3 12-24.3m2.9-.2 14.1 47.6s4.1 8.8 11 8.3c6.8-.5 20.5-5.2 26.3-12.8 2.9-3.8 6.3-10.3 4.9-12.6-1.6-2.5-3.7-1.3-4.9-.9-1.8-.7-13.9-1.6-17.5 4.6m-13.5-26.5s10.6 22.8 15.4 30.4m5.5-94.6s26.6-14.2 36.2-17.2c9.7-3 18.5-6.4 23.3-1.2s.9 15.9-2.3 19.9c-3.7 4.5-10 9.5-18.3 9.5 0 0-10.4.7-11.2-9-2.3 1.1-5.8.9-3.7-2.6 3-5 9-11.3 25.1-13.2"/><path d="m416.1 129.3s11.6 2.4 28.8-.8 39.6-15 39.6-15"/><path d="m364.6 81.8c7.3 3 12.5 11.8 12.5 11.8m-12.5-3c3.5.3 9.5 2.5 11.8 6.2" stroke-linecap="round"/><path d="m444.3 117.3c4.6.5 17.6 6.7 21.2 11.6"/><path d="m463.4 126.7c.9.8 1.6 1.5 2.1 2.2m-19.9-8.3c3.4 2 10.4 8.7 12.3 13.5" stroke-linecap="round"/><path d="m322.102 166.524c6.887-3.976 11.888-8.208 11.17-9.451-.718-1.244-6.883.972-13.77 4.948-6.888 3.977-11.889 8.208-11.171 9.452.718 1.243 6.883-.972 13.771-4.949zm32.601-18.87c6.512-3.024 11.433-6.247 10.991-7.199s-6.079.728-12.591 3.752-11.433 6.247-10.991 7.199 6.079-.728 12.591-3.752zm36.597-14.554c-1.4.7-4.8 2.2-6.2 2.7-6.1 2.2-11.3 3.4-11.6 2.6s4.4-3.2 10.5-5.4c4.3-1.6 8.9-2.6 10.9-2.8m25.2 52.9s1.6 2.1 2.7 1.8 1.5-7.8 0-12.3-3.6-6.5-3.9-6.4m4.2 27c.1.4 4.7.3 7.4 9.4s2 14.3 0 13.6m50.6-107.6c-6.9 0-16.3 7.5-15.7 8.7 1.3 2.5 13.6-1.1 13.6-1.1m-38.7 13s20.8-7.2 21.6-9.3-15.1-.2-15.7.2"/></g><path d="m619 86.2c-10 5.8-20.9 9-33.4 12-18 4.3-37 6.4-37 6.4l26.5-36.8 36.2-15.6 15.6 23.6s-2 2.8-7.9 10.4z" fill="#e1e4e8"/><path d="m652.4 137.4c-13.5 6.1-137.8 40.5-171.3 42.3l57.8-71.1h10.9c10.8 0 22-2.8 31.7-4s33.1-7.2 43.9-16.4c3.2-2.7 6.8-9.6 6.8-9.6l27 40.4c-.1 0 6.7 12.4-6.8 18.4z" fill="#e1e4e8"/><path d="m575.1 67.8 25.3-39.7 18.6 37-9.6-3.5-5.3 17.7-7-14.2-8.9 16.7.5-11.2-9.7 8.7v-8.7l-13.5 16.5z" fill="#f6f8fa"/><path d="m686.9 205.7 7.9-59.4 2.5-71s3.4-1.3 7.6 1.1c4.3 2.4 5.7 5.7 5.7 5.7l-7.6 57.1 1.6 66.6-8.4 7.3z" fill="#f9c513"/><path d="m710.5 82s-1.4-3.3-5.7-5.7c-.4-.2-.8-.4-1.1-.5-.7 5.4-.2 10.9-.1 16.4 0 6.2-.5 12.4-1.4 18.6-1.6 12.7-2.7 25.5-2.9 38.2-.1 6.5.5 12.9.6 19.3.1 6-.4 12.1-1.4 18-1.3 8.1-3.5 16-5.9 23.8l3.5 2.8 8.4-7.3-1.6-66.6z" fill="#dbab09"/><path d="m676.8 93.9c-1.2.1-3.8 47-3.8 47l48.9 5.3 4.1-56.9z" fill="#ffea7f"/><path d="m725.9 89.4-4 56.9 6.1 6.8 7.8-50.5z" fill="#f9c513"/><path d="m692.1 128.2-9.2-13.5 12.2-8.3v7.1l16.6-1.6-2.3 15.3-16.3-6z" fill="#dbab09"/><path d="m690.6 125.6-8.9-12.6 11.9-7.8v6.7l16-1.6-2.3 14.3-15.7-5.5z" fill="#ffd33d"/><path d="m708.4 216.1s3-31.3 1.9-35.8c-.7 2.6-13.3 22.9-13.3 22.9v-19.9s-2.8 9.1-3.7 11.9c-.9-4.2-7.5-16.8-6.5-15.4s1.2 14.7 0 14.7c-.9-.2-4.4-12.4-8-16.4 1.4 1.4 2.3 11.7 3.5 16.8-.5-1.9-9.9-8.4-14.5-9.4.5 3 7.3 8.7 8.7 12.6s-.9 8.4-.9 8.4l8.7 6.5z" fill="#cccfd2"/><path d="m692.2 215.7c-.2-.7 4.8-16.9 4.8-16.9s15-9.2 17.6-10.8c2.6-1.5 6.4-1.3 6.4-1.3l8.1-3.1s22.5 5.9 23.1 6.2c.7.2 4.6 7.5 6.4 9.9s2.6 4 2.9 7.9l.2 4-11.9 12.8h-13.6s-9.7 3.7-11.9 3.1c-2.2-.7-10.1-2.6-13-5.1-2.8-2.5-19.1-6.7-19.1-6.7z" fill="#c0c4c8"/><path d="m721.9 189.4s-1.2-11.4 9.5-23.5m.6.7a1.5 1.5 0 1 0 -.001-3.001 1.5 1.5 0 0 0 .001 3.001zm6 3.7a1.4 1.4 0 1 0 0-2.8 1.4 1.4 0 0 0 0 2.8z" stroke="#c2ccd7" stroke-miterlimit="10" stroke-width="1.307"/><path d="m726.2 173.1s3 1.7 5.7 0 5.1-3.8 5.1-3.8" stroke="#c2ccd7" stroke-miterlimit="10" stroke-width="1.307"/><path d="m711.2 178.2c-.5-1.7-.8-3.4-.4-5.1.2-.8.7-1.7 1.5-1.7.4 0 .7.2 1 .5.7.5 1.3 1.2 1.8 1.9 4.2 5 7.4 10.9 9.4 17.2-.2-3.1 1.4-6.2 3.8-8.2s5.4-3.2 8.4-4c1.1-.3 2.5-.5 3.3.4.6.6.7 1.5.4 2.2-.2.8-.8 1.4-1.3 1.9-1.3 1.2-3 2.1-4.5 3-3.4 1.9-6.6 4.1-9.6 6.6-.3.2-.6.5-.9.5-.2 0-.4 0-.7-.1-6.4-1.8-10.5-9.3-12.2-15.1z" fill="#bcc7d1" opacity=".5"/><path d="m717.3 210c3.1-3 7.8-6.5 11.2-8.6 2.8.6 5.4.1 7.6.4 4.6-4 9.9-8.7 14.6-12.6-5.4-1.4-21.4-5.7-21.4-5.7l-8.1 3.1s-3.7-.2-6.4 1.3c-2.1 1.2-12.1 7.4-16 9.8 2.4 3.9 14.6 9.4 18.5 12.3z" fill="#e4e9ee"/><path d="m673 141v4l55 8.1-6.1-6.8z" fill="#dbab09"/><path d="m648.1 74.9c.5-1.4 15.7-19 15.7-19l16.9 21.1h-2.8l7.5 8s-9.8.9-11.2-1.9c-1 2-3.7 5.5-4.9 5.1s-7.6-8.6-7.6-8.6-6.5 11.8-7.5 11.4-3.3-15.2-3.3-15.2l-3.8 3.3 2-3.3z" fill="#fafbfc"/><path d="m750.6 189.3c-5.4-1.4-21.4-5.7-21.4-5.7l-8.1 3.1s-3.7-.2-6.4 1.3c-2.1 1.2-12.1 7.4-16 9.8" stroke="#e1e4e8" stroke-miterlimit="10" stroke-width=".327"/><path d="m146 199.5c1.9-.2.8 3.2 1.9 3.6.8.3 1.9-.4 2.9.1 1 .4 1.8 1.4 2.3 2.3.7 1.4.7 2.8.6 4.3-.1 2.1.1 4.1 2.4 4.7-.7-.5-1.1-1.5-1.1-2.4 0-1 .3-2 .5-2.9.4-2.8-.9-5.7-3.2-7.3.5-.9.7-1.8.7-2.9 0-1-.4-1.9-1.4-2s-1.6.5-1.8 1.5.1 2.1.3 3.1h-1.9c1.1-3.7-.2-5.2-1.7-4.6-1 .4-1.2 1.5-1.1 2.6.2-.1.4-.1.6-.1z" fill="#ffd1ac" opacity=".6"/></svg>